HIERARCHY
ROOT Hips
{
	OFFSET 0.000000 100.481300 0.000000
	CHANNELS 6 Xposition Yposition Zposition Xrotation Yrotation Zrotation 
	JOINT Spine
	{
		OFFSET -0.279200 12.230698 -2.892100
		CHANNELS 3 Xrotation Yrotation Zrotation
		JOINT Spine1
		{
			OFFSET -0.232667 10.192268 -1.242267
			CHANNELS 3 Xrotation Yrotation Zrotation
			JOINT Spine1_split
			{
				OFFSET -0.232667 10.192268 -1.242267
				CHANNELS 3 Xrotation Yrotation Zrotation
				JOINT Spine2
				{
					OFFSET -0.232667 10.192268 -1.242267
					CHANNELS 3 Xrotation Yrotation Zrotation
					JOINT Neck
					{
						OFFSET -0.418800 17.814194 8.416900
						CHANNELS 3 Xrotation Yrotation Zrotation
						JOINT Head
						{
							OFFSET 0.000000 7.031097 3.806800
							CHANNELS 3 Xrotation Yrotation Zrotation
							JOINT HeadTop_End
							{
								OFFSET 0.000000 24.646606 12.978600
								CHANNELS 3 Xrotation Yrotation Zrotation
								End Site
								{
									OFFSET 0.000000 0.000000 0.000000
								}
							}
						}
					}
					JOINT LeftShoulder
					{
						OFFSET 8.476499 7.247704 -3.868750
						CHANNELS 3 Xrotation Yrotation Zrotation
						JOINT LeftShoulder_split
						{
							OFFSET 8.476499 7.247704 -3.868750
							CHANNELS 3 Xrotation Yrotation Zrotation
							JOINT LeftArm
							{
								OFFSET 9.308998 -2.777710 0.208600
								CHANNELS 3 Xrotation Yrotation Zrotation
								JOINT LeftForeArm
								{
									OFFSET 29.972298 0.000000 0.000000
									CHANNELS 3 Xrotation Yrotation Zrotation
									JOINT LeftHand
									{
										OFFSET 26.026505 0.000000 0.000000
										CHANNELS 3 Xrotation Yrotation Zrotation
										JOINT LeftHandThumb1
										{
											OFFSET 12.240501 -7.147949 9.207150
											CHANNELS 3 Xrotation Yrotation Zrotation
											JOINT LeftHandThumb2
											{
												OFFSET 4.138618 -2.389435 2.389433
												CHANNELS 3 Xrotation Yrotation Zrotation
												JOINT LeftHandThumb3
												{
													OFFSET 2.726913 -1.574387 1.574386
													CHANNELS 3 Xrotation Yrotation Zrotation
													JOINT LeftHandThumb4
													{
														OFFSET 3.941010 -2.275345 2.275342
														CHANNELS 3 Xrotation Yrotation Zrotation
														End Site
														{
															OFFSET 0.000000 0.000000 0.000000
														}
													}
												}
											}
										}
										JOINT LeftHandIndex1
										{
											OFFSET 24.424698 -1.985611 5.953459
											CHANNELS 3 Xrotation Yrotation Zrotation
											JOINT LeftHandIndex2
											{
												OFFSET 6.426697 0.000000 0.000000
												CHANNELS 3 Xrotation Yrotation Zrotation
												JOINT LeftHandIndex3
												{
													OFFSET 5.337898 0.000000 0.000000
													CHANNELS 3 Xrotation Yrotation Zrotation
													JOINT LeftHandIndex4
													{
														OFFSET 4.409401 0.000000 0.000000
														CHANNELS 3 Xrotation Yrotation Zrotation
														End Site
														{
															OFFSET 0.000000 0.000000 0.000000
														}
													}
												}
											}
										}
										JOINT LeftHandMiddle1
										{
											OFFSET 23.810104 0.000000 0.000000
											CHANNELS 3 Xrotation Yrotation Zrotation
											JOINT LeftHandMiddle2
											{
												OFFSET 7.176498 0.000000 0.000000
												CHANNELS 3 Xrotation Yrotation Zrotation
												JOINT LeftHandMiddle3
												{
													OFFSET 6.774902 0.000000 0.000000
													CHANNELS 3 Xrotation Yrotation Zrotation
													JOINT LeftHandMiddle4
													{
														OFFSET 5.403328 0.000000 0.000000
														CHANNELS 3 Xrotation Yrotation Zrotation
														End Site
														{
															OFFSET 0.000000 0.000000 0.000000
														}
													}
												}
											}
										}
										JOINT LeftHandRing1
										{
											OFFSET 22.908401 -0.839279 -6.020567
											CHANNELS 3 Xrotation Yrotation Zrotation
											JOINT LeftHandRing2
											{
												OFFSET 6.337502 0.000000 0.000000
												CHANNELS 3 Xrotation Yrotation Zrotation
												JOINT LeftHandRing3
												{
													OFFSET 5.779297 0.000000 0.000000
													CHANNELS 3 Xrotation Yrotation Zrotation
													JOINT LeftHandRing4
													{
														OFFSET 4.965698 0.000000 0.000000
														CHANNELS 3 Xrotation Yrotation Zrotation
														End Site
														{
															OFFSET 0.000000 0.000000 0.000000
														}
													}
												}
											}
										}
										JOINT LeftHandPinky1
										{
											OFFSET 20.037003 -1.530319 -10.950146
											CHANNELS 3 Xrotation Yrotation Zrotation
											JOINT LeftHandPinky2
											{
												OFFSET 5.254700 0.000000 0.000000
												CHANNELS 3 Xrotation Yrotation Zrotation
												JOINT LeftHandPinky3
												{
													OFFSET 4.810204 0.000000 0.000000
													CHANNELS 3 Xrotation Yrotation Zrotation
													JOINT LeftHandPinky4
													{
														OFFSET 3.647202 0.000000 0.000000
														CHANNELS 3 Xrotation Yrotation Zrotation
														End Site
														{
															OFFSET 0.000000 0.000000 0.000000
														}
													}
												}
											}
										}
									}
								}
							}
						}
					}
					JOINT RightShoulder
					{
						OFFSET -7.570500 7.247704 -3.868750
						CHANNELS 3 Xrotation Yrotation Zrotation
						JOINT RightShoulder_split
						{
							OFFSET -7.570500 7.247704 -3.868750
							CHANNELS 3 Xrotation Yrotation Zrotation
							JOINT RightArm
							{
								OFFSET -9.308998 -2.777710 0.208500
								CHANNELS 3 Xrotation Yrotation Zrotation
								JOINT RightForeArm
								{
									OFFSET -29.972300 0.000000 0.000000
									CHANNELS 3 Xrotation Yrotation Zrotation
									JOINT RightHand
									{
										OFFSET -26.026505 0.000000 0.000000
										CHANNELS 3 Xrotation Yrotation Zrotation
										JOINT RightHandThumb1
										{
											OFFSET -12.240601 -7.148026 9.207092
											CHANNELS 3 Xrotation Yrotation Zrotation
											JOINT RightHandThumb2
											{
												OFFSET -4.138618 -2.389435 2.389433
												CHANNELS 3 Xrotation Yrotation Zrotation
												JOINT RightHandThumb3
												{
													OFFSET -2.726974 -1.574417 1.574421
													CHANNELS 3 Xrotation Yrotation Zrotation
													JOINT RightHandThumb4
													{
														OFFSET -3.941010 -2.275345 2.275343
														CHANNELS 3 Xrotation Yrotation Zrotation
														End Site
														{
															OFFSET 0.000000 0.000000 0.000000
														}
													}
												}
											}
										}
										JOINT RightHandIndex1
										{
											OFFSET -24.424698 -1.985657 5.953444
											CHANNELS 3 Xrotation Yrotation Zrotation
											JOINT RightHandIndex2
											{
												OFFSET -6.426697 0.000000 0.000000
												CHANNELS 3 Xrotation Yrotation Zrotation
												JOINT RightHandIndex3
												{
													OFFSET -5.337898 0.000000 0.000000
													CHANNELS 3 Xrotation Yrotation Zrotation
													JOINT RightHandIndex4
													{
														OFFSET -4.409401 0.000000 0.000000
														CHANNELS 3 Xrotation Yrotation Zrotation
														End Site
														{
															OFFSET 0.000000 0.000000 0.000000
														}
													}
												}
											}
										}
										JOINT RightHandMiddle1
										{
											OFFSET -23.810097 0.000000 0.000000
											CHANNELS 3 Xrotation Yrotation Zrotation
											JOINT RightHandMiddle2
											{
												OFFSET -7.176498 0.000000 0.000000
												CHANNELS 3 Xrotation Yrotation Zrotation
												JOINT RightHandMiddle3
												{
													OFFSET -6.774902 0.000000 0.000000
													CHANNELS 3 Xrotation Yrotation Zrotation
													JOINT RightHandMiddle4
													{
														OFFSET -5.403328 0.000000 0.000000
														CHANNELS 3 Xrotation Yrotation Zrotation
														End Site
														{
															OFFSET 0.000000 0.000000 0.000000
														}
													}
												}
											}
										}
										JOINT RightHandRing1
										{
											OFFSET -22.908302 -0.839325 -6.020576
											CHANNELS 3 Xrotation Yrotation Zrotation
											JOINT RightHandRing2
											{
												OFFSET -6.337502 0.000000 0.000000
												CHANNELS 3 Xrotation Yrotation Zrotation
												JOINT RightHandRing3
												{
													OFFSET -5.779297 0.000000 0.000000
													CHANNELS 3 Xrotation Yrotation Zrotation
													JOINT RightHandRing4
													{
														OFFSET -4.965698 0.000000 0.000000
														CHANNELS 3 Xrotation Yrotation Zrotation
														End Site
														{
															OFFSET 0.000000 0.000000 0.000000
														}
													}
												}
											}
										}
										JOINT RightHandPinky1
										{
											OFFSET -20.037003 -1.530334 -10.950259
											CHANNELS 3 Xrotation Yrotation Zrotation
											JOINT RightHandPinky2
											{
												OFFSET -5.254700 0.000000 0.000000
												CHANNELS 3 Xrotation Yrotation Zrotation
												JOINT RightHandPinky3
												{
													OFFSET -4.810204 0.000000 0.000000
													CHANNELS 3 Xrotation Yrotation Zrotation
													JOINT RightHandPinky4
													{
														OFFSET -3.647202 0.000000 0.000000
														CHANNELS 3 Xrotation Yrotation Zrotation
														End Site
														{
															OFFSET 0.000000 0.000000 0.000000
														}
													}
												}
											}
										}
									}
								}
							}
						}
					}
				}
			}
		}
	}
	JOINT LeftUpLeg
	{
		OFFSET 15.427100 -6.655098 0.678600
		CHANNELS 3 Xrotation Yrotation Zrotation
		JOINT LeftLeg
		{
			OFFSET 4.081073 -39.591068 13.024000
			CHANNELS 3 Xrotation Yrotation Zrotation
			JOINT LeftFoot
			{
				OFFSET -4.081074 -37.707932 -15.979700
				CHANNELS 3 Xrotation Yrotation Zrotation
				JOINT LeftToeBase
				{
					OFFSET 5.346399 -15.068900 20.645000
					CHANNELS 3 Xrotation Yrotation Zrotation
					JOINT LeftToe_End
					{
						OFFSET 2.754700 0.931300 11.300900
						CHANNELS 3 Xrotation Yrotation Zrotation
						End Site
						{
							OFFSET 0.000000 0.000000 0.000000
						}
					}
				}
			}
		}
	}
	JOINT RightUpLeg
	{
		OFFSET -15.569500 -6.655098 0.678600
		CHANNELS 3 Xrotation Yrotation Zrotation
		JOINT RightLeg
		{
			OFFSET -4.081825 -39.591045 13.023800
			CHANNELS 3 Xrotation Yrotation Zrotation
			JOINT RightFoot
			{
				OFFSET 4.081824 -37.707954 -15.979600
				CHANNELS 3 Xrotation Yrotation Zrotation
				JOINT RightToeBase
				{
					OFFSET -5.346400 -15.068900 20.645000
					CHANNELS 3 Xrotation Yrotation Zrotation
					JOINT RightToe_End
					{
						OFFSET -2.754700 0.931300 11.300900
						CHANNELS 3 Xrotation Yrotation Zrotation
						End Site
						{
							OFFSET 0.000000 0.000000 0.000000
						}
					}
				}
			}
		}
	}
}
MOTION
Frames: 5
Frame Time: 0.016667
4.807420 82.801468 124.651375 4.438034 -6.262584 -2.342061 16.273836 3.267196 0.714037 20.044449 7.628497 3.273776 0.000000 0.000000 0.000000 19.863225 7.768540 3.728082 -47.889953 28.030584 -28.867193 36.505394 -35.951008 36.350325 -0.000001 -0.000001 0.000001 -3.629738 -15.408605 -10.382901 0.000000 0.000000 0.000000 -11.971353 6.480794 -65.205091 -0.000021 -64.653915 -0.000008 10.348448 11.182148 -5.507175 40.231535 -29.869712 63.220661 101.357125 66.798096 231.385772 -12.925921 -19.532203 6.920535 0.000001 0.000002 0.000001 0.326278 4.094613 -16.584189 0.575165 2.533362 -25.578751 0.067070 0.884907 -8.668907 0.000002 0.000001 -0.000002 -1.060370 2.730917 -36.207540 1.715301 4.142493 -44.971789 1.052595 3.352005 -34.858171 -0.000001 -0.000000 0.000001 -3.216819 3.157191 -55.387787 2.284636 4.641480 -52.395843 3.600483 5.402292 -67.342960 0.000002 -0.000001 0.000001 -4.251968 3.052443 -58.936978 2.013177 4.419826 -48.960480 2.796336 4.992716 -58.483672 0.000000 -0.000000 0.000002 -0.264763 19.358402 4.692113 0.000000 0.000000 0.000000 -45.642753 8.432337 36.901463 0.000212 101.974519 -0.000214 -5.090100 -12.734910 15.640851 33.081762 30.015266 -8.052848 13.702154 -51.628430 20.266389 8.634573 -42.419170 1.849733 0.000000 0.000001 -0.000001 0.112188 -3.191133 17.097154 3.779993 -4.573994 79.132051 3.780022 -4.573997 79.132045 0.000001 0.000002 -0.000000 2.613387 -8.387966 27.063296 5.675755 -4.544667 102.647095 5.225969 -4.622385 97.022953 -0.000001 0.000004 -0.000000 1.668059 -5.863645 57.331542 4.190485 -4.633777 84.242488 4.352825 -4.647219 86.249020 0.000000 0.000000 0.000000 1.874828 -6.023811 60.182450 3.825257 -4.582428 79.698889 3.825258 -4.582418 79.698916 -0.000000 -0.000000 -0.000001 -52.831735 9.365965 8.005966 36.986021 -4.893270 3.989633 3.198059 -14.375619 -2.189658 4.494565 -1.670367 0.264129 -0.000000 0.000001 -0.000000 -18.216963 3.256051 7.195169 44.231188 2.382172 -2.883277 -29.687356 0.114858 -0.753859 -1.310686 0.000000 0.000001 -0.000000 -0.000000 0.000000 
4.624816 83.125359 123.752289 3.544779 -6.474387 -2.740369 16.088832 3.251068 0.800902 19.617236 7.612216 3.331498 0.000000 0.000000 0.000000 19.436458 7.747065 3.778477 -47.550650 27.672107 -28.991380 38.119252 -35.320653 37.422740 -0.000001 0.000000 -0.000001 -3.381589 -14.879793 -10.335929 0.000000 0.000000 0.000000 -13.224281 6.607388 -66.021865 0.000004 -61.657730 0.000018 11.729651 10.831205 -6.290854 40.231556 -29.869705 63.220682 101.357125 66.798103 231.385772 -12.925902 -19.532198 6.920529 0.000001 0.000002 0.000003 0.332585 4.115499 -16.628104 0.574481 2.531942 -25.563260 0.066835 0.883341 -8.653502 -0.000001 0.000000 -0.000002 -1.056185 2.737759 -36.217010 1.715063 4.142266 -44.968497 1.052592 3.351994 -34.858178 0.000000 0.000001 -0.000001 -3.220683 3.154173 -55.385659 2.283636 4.640711 -52.383548 3.599324 5.401806 -67.330646 -0.000003 -0.000001 0.000001 -4.265361 3.043540 -58.932935 2.013850 4.420410 -48.969147 2.797088 4.993176 -58.492340 -0.000003 0.000000 0.000001 -0.354258 18.524219 5.452757 0.000000 0.000000 0.000000 -46.329631 9.134344 35.856082 0.000078 102.007782 -0.000082 -4.606133 -14.524223 16.388243 33.376464 32.501059 -7.034546 15.577998 -52.554300 22.116887 7.397139 -41.000567 0.906510 0.000002 0.000000 0.000001 0.230068 -3.590281 18.982728 3.761834 -4.570465 78.904060 3.761826 -4.570476 78.904087 0.000001 0.000001 -0.000001 2.920884 -8.736733 28.390118 5.675519 -4.544703 102.644035 5.225974 -4.622382 97.022981 -0.000000 -0.000001 0.000000 1.674752 -5.879996 58.233107 4.191191 -4.633838 84.251066 4.353533 -4.647279 86.257592 -0.000001 -0.000001 0.000000 1.781886 -5.983840 61.063469 3.804117 -4.578547 79.434164 3.804117 -4.578549 79.434205 -0.000000 -0.000002 0.000000 -52.092647 9.420129 8.772219 37.225890 -4.519016 4.435226 0.944438 -11.851324 -2.822115 4.289524 -1.961966 0.567514 0.000000 0.000000 0.000000 -17.713981 3.067460 7.431814 43.403233 2.724831 -2.546431 -28.850784 0.282848 -0.855334 -1.095166 0.000002 0.000001 0.000000 0.000000 0.000000 
4.467274 83.381218 122.918808 2.640027 -6.578994 -3.111601 15.921016 3.243290 0.932272 19.228934 7.527441 3.365997 0.000000 0.000000 0.000000 19.049732 7.657295 3.800926 -47.323037 27.067673 -28.852573 39.262130 -34.802006 37.979045 0.000002 -0.000002 -0.000000 -3.121602 -14.392984 -10.230464 0.000000 0.000000 0.000000 -14.563000 6.814953 -66.747286 -0.000002 -58.543833 -0.000004 13.133019 10.507465 -7.034982 40.231573 -29.869705 63.220689 101.357207 66.798109 231.385663 -12.925891 -19.532213 6.920530 0.000001 -0.000001 -0.000004 0.338914 4.136362 -16.672012 0.573795 2.530520 -25.547834 0.066601 0.881780 -8.638105 -0.000001 0.000001 -0.000001 -1.051991 2.744608 -36.226493 1.714832 4.142018 -44.965215 1.052593 3.351994 -34.858178 0.000000 0.000001 -0.000001 -3.224550 3.151151 -55.383576 2.282643 4.639956 -52.371254 3.598167 5.401322 -67.318331 0.000003 0.000001 -0.000001 -4.278746 3.034634 -58.928891 2.014519 4.420992 -48.977815 2.797844 4.993633 -58.501021 0.000001 -0.000001 0.000001 -0.392653 17.683322 6.225814 0.000000 0.000000 0.000000 -47.721859 9.660095 34.897813 0.000145 101.754478 -0.000147 -3.782702 -15.360843 17.241470 33.184228 33.896497 -6.641118 19.105014 -53.466376 25.625815 4.384479 -38.344361 -1.908733 0.000000 -0.000001 -0.000002 0.430337 -4.130901 22.535886 3.754254 -4.568978 78.809031 3.754254 -4.568981 78.809024 0.000000 0.000000 -0.000003 3.498113 -9.251687 31.121508 5.680920 -4.543490 102.712385 5.225975 -4.622398 97.022953 0.000000 0.000002 0.000000 1.784268 -5.966297 59.751519 4.181612 -4.632876 84.132809 4.343947 -4.646643 86.139368 0.000000 -0.000001 0.000000 1.716427 -5.975403 62.613956 3.744631 -4.567099 78.687993 3.744630 -4.567082 78.688028 0.000000 0.000001 0.000000 -51.413221 9.740561 9.455967 37.760762 -4.351972 4.899561 -1.619761 -9.156129 -3.096052 4.116061 -2.409849 0.997263 -0.000000 0.000000 -0.000000 -17.197300 2.840713 7.734731 42.743331 3.072684 -2.332223 -28.083764 0.333362 -1.025665 -0.872615 0.000000 -0.000002 -0.000000 -0.000000 -0.000000 
4.345907 83.595497 122.124306 1.725837 -6.548471 -3.435927 15.755938 3.243053 1.102369 18.892728 7.360077 3.379200 0.000000 0.000000 0.000000 18.719016 7.487799 3.782731 -47.227995 26.281470 -28.461890 39.969905 -34.405142 38.024015 0.000000 -0.000001 0.000000 -2.920886 -13.934226 -10.054509 0.000000 0.000000 0.000000 -15.900429 7.130569 -67.405006 -0.000010 -55.377333 -0.000005 14.612005 10.219435 -7.765614 40.231535 -29.869712 63.220661 101.357186 66.798082 231.385690 -12.925873 -19.532224 6.920538 0.000000 0.000000 0.000002 0.345257 4.157184 -16.715904 0.573118 2.529099 -25.532453 0.066364 0.880222 -8.622730 0.000001 0.000001 -0.000002 -1.047810 2.751436 -36.235977 1.714583 4.141781 -44.961892 1.052595 3.352001 -34.858181 -0.000000 -0.000000 -0.000001 -3.228415 3.148122 -55.381493 2.281640 4.639186 -52.358939 3.597006 5.400852 -67.306023 0.000001 -0.000001 0.000001 -4.292128 3.025727 -58.924868 2.015192 4.421568 -48.986475 2.798594 4.994088 -58.509648 0.000002 -0.000002 0.000003 -0.415604 16.816237 7.010203 0.000000 0.000000 0.000000 -50.064853 9.752495 34.132699 0.000008 102.015261 -0.000006 -0.832185 -16.814193 17.983342 32.697871 34.534898 -6.548612 23.673214 -54.235465 30.132947 0.999288 -34.867392 -5.347182 0.000001 0.000002 -0.000003 0.718690 -4.714159 27.043096 3.751666 -4.568488 78.776588 3.751698 -4.568479 78.776588 -0.000000 -0.000001 -0.000000 4.252574 -9.772390 34.666004 5.688892 -4.541681 102.812597 5.225968 -4.622381 97.022953 0.000000 0.000003 0.000001 1.962003 -6.088684 61.568985 4.166805 -4.631346 83.949356 4.329082 -4.645615 85.955895 0.000001 0.000001 -0.000000 1.641895 -5.979103 64.563511 3.670857 -4.551756 77.759935 3.670842 -4.551741 77.759989 -0.000000 -0.000001 0.000000 -50.332344 9.197378 10.387987 38.338398 -2.434423 4.749643 -4.442074 -7.487118 -3.478211 3.731107 -2.876474 1.489686 -0.000001 -0.000000 -0.000000 -16.755735 2.518706 8.071351 42.342542 3.361842 -2.262296 -27.173165 0.299864 -1.366692 -0.815234 -0.000000 0.000001 -0.000000 0.000000 0.000000 
4.230437 83.781372 121.337135 0.809047 -6.370832 -3.691326 15.605705 3.215741 1.282818 18.588266 7.129564 3.367388 0.000000 0.000000 0.000000 18.418534 7.257465 3.742485 -47.311761 25.217132 -27.825697 40.216147 -34.030683 37.590954 -0.000000 -0.000001 0.000000 -2.696763 -13.540293 -9.827419 0.000000 0.000000 0.000000 -17.269372 7.585422 -67.978359 0.000015 -52.241638 0.000006 16.215615 9.976515 -8.505850 40.231539 -29.869694 63.220682 101.357166 66.798089 231.385717 -12.925839 -19.532222 6.920543 -0.000001 0.000003 -0.000001 0.351643 4.177990 -16.759756 0.572443 2.527678 -25.517100 0.066125 0.878679 -8.607385 -0.000000 -0.000001 0.000000 -1.043620 2.758278 -36.245406 1.714344 4.141534 -44.958621 1.052594 3.352003 -34.858171 0.000000 -0.000003 0.000001 -3.232274 3.145110 -55.379368 2.280652 4.638421 -52.346659 3.595846 5.400364 -67.293674 0.000001 0.000001 -0.000001 -4.305502 3.016822 -58.920818 2.015850 4.422150 -48.995105 2.799357 4.994557 -58.518308 -0.000001 -0.000000 0.000001 -0.400118 15.885985 7.777823 0.000000 0.000000 0.000000 -52.330044 10.140603 33.435565 -0.000015 101.413221 -0.000003 1.318806 -16.695723 18.843455 32.014391 34.183061 -6.004125 28.477278 -54.880590 34.611943 -1.714646 -31.081551 -8.282306 0.000002 0.000000 -0.000001 1.059959 -5.234426 31.965685 3.749963 -4.568135 78.754943 3.749968 -4.568151 78.754963 0.000002 0.000002 0.000000 5.025035 -10.138136 38.417963 5.695600 -4.540159 102.897613 5.225969 -4.622382 97.022953 0.000000 -0.000000 -0.000000 2.189273 -6.223731 63.172584 4.150516 -4.629574 83.747641 4.312736 -4.644439 85.754145 -0.000001 -0.000000 -0.000001 1.566150 -5.997658 66.687303 3.618008 -4.540002 77.093137 3.618004 -4.539994 77.093260 -0.000002 -0.000001 0.000001 -48.771164 8.234776 11.408136 38.980928 1.456073 4.127417 -7.014929 -7.640658 -4.018458 3.467050 -3.637564 2.204509 -0.000000 0.000000 0.000000 -16.337961 2.265380 8.410224 42.063836 3.661447 -2.258542 -26.358304 0.088931 -1.595441 -0.611731 0.000002 0.000002 -0.000000 0.000000 0.000000 
